<?xml version="1.0" encoding="utf-8"?>
<!-- Generator: Adobe Illustrator 25.0.0, SVG Export Plug-In . SVG Version: 6.00 Build 0)  -->
<svg version="1.1" id="Layer_1" xmlns="http://www.w3.org/2000/svg" xmlns:xlink="http://www.w3.org/1999/xlink" x="0px" y="0px"
	 viewBox="0 0 100 100" style="enable-background:new 0 0 100 100;" xml:space="preserve">
<style type="text/css">
	.st0{fill:none;}
</style>
<g>
	<rect x="-1.35" y="20.2" class="st0" width="99.23" height="77.42"/>
	<path d="M45.88,34.18l3.04,5.3h-6.37l-2.57-4.58h-1.51l-0.91,4.58h-6.14l3.64-18.2h8.16c4.81,0,7.57,2.21,7.57,5.98
		C50.79,30.52,48.97,33.01,45.88,34.18z M42.29,26.02h-2.05l-0.86,4.26h2.52c1.69,0,2.68-0.88,2.68-2.42
		C44.58,26.56,43.7,26.02,42.29,26.02z"/>
	<path d="M64.05,36.31h-6.94l-1.82,3.17h-6.47l11.6-18.2h6.03l4.32,18.2h-6.11L64.05,36.31z M63.2,31.89l-0.88-4.65l-2.68,4.65H63.2
		z"/>
	<path d="M75.39,21.29h6.14l-3.64,18.2h-6.14L75.39,21.29z"/>
	<path d="M80.2,38.06l2.37-4.52c2.03,1.17,4.11,1.69,6.14,1.69c1.59,0,2.42-0.42,2.42-1.07c0-1.92-8.66-0.81-8.66-6.45
		c0-4.13,3.46-6.84,9.2-6.84c2.7,0,5.12,0.55,6.81,1.56l-2.21,4.47c-1.46-0.91-3.22-1.35-4.99-1.35c-1.79,0-2.68,0.6-2.68,1.22
		c0,2,8.68,0.73,8.68,6.34c0,4.06-3.54,6.79-9.2,6.79C84.83,39.9,81.94,39.12,80.2,38.06z"/>
	<path d="M21.81,52.49l-3.64,18.2h-6.14l1.35-6.71H7.71l-1.35,6.71H0.22l3.64-18.2H10l-1.3,6.45h5.67l1.3-6.45H21.81z"/>
	<path d="M29.86,57.12l-0.42,2.13h7.7l-0.88,4.42h-7.72l-0.47,2.39h9.13l-0.94,4.63H21.13l3.64-18.2h14.79l-0.94,4.63H29.86z"/>
	<path d="M42.27,52.49h6.14l-2.68,13.44h8.22l-0.96,4.76H38.63L42.27,52.49z"/>
	<path d="M80.1,52.49l-3.59,18.2h-5.59l1.61-8.29l-5.12,6.66H64.7L61.9,62.5l-1.64,8.19h-5.59l3.64-18.2h4.99l3.95,9.67l7.62-9.67
		H80.1z"/>
	<path d="M91.59,64.08l-1.3,6.6h-6.14L85.48,64l-4.55-11.52h6.16l2.47,6.29l5.07-6.29h6.16L91.59,64.08z"/>
</g>
<g>
</g>
<g>
</g>
<g>
</g>
<g>
</g>
<g>
</g>
</svg>
